<?xml version="1.0" encoding="UTF-8"?>
<svg width="40px" height="38px" viewBox="0 0 40 38" version="1.1" xmlns="http://www.w3.org/2000/svg" xmlns:xlink="http://www.w3.org/1999/xlink">
    <!-- Generator: Sketch 42 (36781) - http://www.bohemiancoding.com/sketch -->
    <title>ic_git</title>
    <desc>Created with Sketch.</desc>
    <defs></defs>
    <g id="Screens" stroke="none" stroke-width="1" fill="none" fill-rule="evenodd">
        <g id="Página-Jera-Labs---Teste" transform="translate(-366.000000, -1331.000000)">
            <g id="Card-projeto" transform="translate(263.000000, 960.000000)">
                <g id="ic_git" transform="translate(102.000000, 368.000000)">
                    <rect id="Rectangle-2" x="0" y="0" width="42" height="42"></rect>
                    <path d="M20.998739,3.00001506 C10.3510846,3.00001506 1.71729021,11.51083 1.71729021,22.0117684 C1.71729021,30.409707 7.24175728,37.5351359 14.9054258,40.0492882 C15.8695692,40.2239479 16.2214692,39.6369806 16.2214692,39.1331773 C16.2214692,38.6817189 16.2046001,37.486403 16.1949395,35.9002073 C10.8307781,37.0491502 9.69911968,33.3516247 9.69911968,33.3516247 C8.82295109,31.1558771 7.55874116,30.571317 7.55874116,30.571317 C5.80763003,29.3914587 7.69129187,29.4151991 7.69129187,29.4151991 C9.62561091,29.5495049 10.6439418,31.3745027 10.6439418,31.3745027 C12.3649439,34.2795332 15.1573363,33.4407124 16.2564335,32.9535708 C16.431157,31.7250269 16.9301228,30.8873619 17.4808729,30.412115 C13.1989396,29.9320521 8.69760888,28.3019395 8.69760888,21.0173086 C8.69760888,18.9415649 9.44843526,17.244901 10.6825353,15.9153266 C10.4836843,15.4341087 9.82205878,13.5021575 10.8705486,10.8846637 C10.8705486,10.8846637 12.4902861,10.3737336 16.1732641,12.8332285 C17.7122851,12.4114342 19.3609546,12.2011395 21.0011904,12.1928086 C22.6389748,12.2011395 24.2888704,12.4114342 25.8290684,12.8332285 C29.5096433,10.3737336 31.1258015,10.8846637 31.1258015,10.8846637 C32.1778706,13.5021575 31.5162451,15.4341087 31.3173941,15.9153266 C32.5538972,17.244901 33.2999174,18.9415649 33.2999174,21.0173086 C33.2999174,28.319757 28.7913782,29.9273333 24.4961559,30.3978124 C25.1879403,30.9847805 25.80499,32.144414 25.80499,33.9183673 C25.80499,36.459823 25.7808633,38.5094183 25.7808633,39.1331773 C25.7808633,39.6417476 26.1279571,40.2334346 27.1065665,40.0468802 C34.7629775,37.528009 40.28264,30.4073472 40.28264,22.0117684 C40.28264,11.51083 31.6488448,3.00001506 20.998739,3.00001506" id="Fill-4" fill-opacity="0.87" fill="#000000"></path>
                </g>
            </g>
        </g>
    </g>
</svg>