<?xml version="1.0" encoding="UTF-8"?>
<svg width="35px" height="40px" viewBox="0 0 35 40" version="1.1" xmlns="http://www.w3.org/2000/svg" xmlns:xlink="http://www.w3.org/1999/xlink">
    <!-- Generator: Sketch 42 (36781) - http://www.bohemiancoding.com/sketch -->
    <title>ic_playstore</title>
    <desc>Created with Sketch.</desc>
    <defs></defs>
    <g id="Screens" stroke="none" stroke-width="1" fill="none" fill-rule="evenodd">
        <g id="Página-Jera-Labs---Teste" transform="translate(-311.000000, -1329.000000)">
            <g id="Card-projeto" transform="translate(263.000000, 960.000000)">
                <g id="ic_playstore" transform="translate(44.000000, 368.000000)">
                    <rect id="Rectangle-2" x="0" y="0" width="42" height="42"></rect>
                    <path d="M26.4543379,9.3007232 C25.8040482,9.3007232 25.2776455,8.7939515 25.2776455,8.16796411 C25.2776455,7.54197591 25.8040482,7.03748571 26.4543379,7.03748571 C27.1046021,7.03748571 27.6310047,7.54197591 27.6310047,8.16796411 C27.6310047,8.7939515 27.1046021,9.3007232 26.4543379,9.3007232 Z M17.0456613,9.3007232 C16.3953971,9.3007232 15.8689945,8.7939515 15.8689945,8.16796411 C15.8689945,7.54197591 16.3953971,7.03748571 17.0456613,7.03748571 C17.695951,7.03748571 18.2223536,7.54197591 18.2223536,8.16796411 C18.2223536,8.7939515 17.695951,9.3007232 17.0456613,9.3007232 Z M27.1498496,4.76507428 L27.5881385,4.12763064 L28.0264026,3.49931219 L29.0030024,2.08681015 C29.1244818,1.91249721 29.0744716,1.67862558 28.8934304,1.56397127 C28.7147951,1.44703545 28.4694549,1.49518827 28.3527381,1.66945164 L26.8616424,3.81803401 L26.4138275,4.46470115 C24.9965831,3.93496982 23.417348,3.63920844 21.75,3.63920844 C20.0850325,3.63920844 18.5034161,3.93496982 17.0861717,4.46470115 L16.6407381,3.81803401 L16.2000926,3.18287187 L15.1520237,1.66945164 C15.0305442,1.49518827 14.7875854,1.44931695 14.6065688,1.56397127 C14.4279097,1.67862558 14.3778987,1.91249721 14.4969968,2.08681015 L15.4735965,3.49931219 L15.9118607,4.12763064 L16.3525309,4.76507428 C13.0249533,6.25786432 10.7740213,9.08520026 10.7740213,12.3206704 L32.7259779,12.3206704 C32.7259779,9.08520026 30.4750459,6.25786432 27.1498496,4.76507428 Z M10.9431551,13.8295276 L10.7740213,13.8295276 L10.7740213,30.4357906 C10.7740213,31.7543172 11.8863892,32.8274681 13.2583869,32.8274681 L15.0495965,32.8274681 C14.987678,33.0269238 14.9543379,33.2356031 14.9543379,33.4557378 L14.9543379,38.2367625 C14.9543379,39.4864574 16.0095253,40.5 17.3076724,40.5 C18.6058441,40.5 19.6610324,39.4864574 19.6610324,38.2367625 L19.6610324,33.4557378 C19.6610324,33.2356031 19.6253101,33.0269238 19.5657738,32.8274681 L23.9342254,32.8274681 C23.8746891,33.0269238 23.8413481,33.2356031 23.8413481,33.4557378 L23.8413481,38.2367625 C23.8413481,39.4864574 24.894155,40.5 26.1923268,40.5 C27.4928552,40.5 28.5480426,39.4864574 28.5480426,38.2367625 L28.5480426,33.4557378 C28.5480426,33.2356031 28.5123212,33.0269238 28.4504027,32.8274681 L30.2439945,32.8274681 C31.6159913,32.8274681 32.7259779,31.7543172 32.7259779,30.4357906 L32.7259779,13.8295276 L10.9431551,13.8295276 Z M6.85335918,13.8295276 C5.55280611,13.8295276 4.5,14.8430206 4.5,16.0927651 L4.5,25.7808756 C4.5,27.0306201 5.55280611,28.0441618 6.85335918,28.0441618 C8.15150629,28.0441618 9.20433786,27.0306201 9.20433786,25.7808756 L9.20433786,16.0927651 C9.20433786,14.8430206 8.15150629,13.8295276 6.85335918,13.8295276 Z M36.6490213,13.8295276 C35.3484929,13.8295276 34.2956613,14.8430206 34.2956613,16.0927651 L34.2956613,25.7808756 C34.2956613,27.0306201 35.3484929,28.0441618 36.6490213,28.0441618 C37.9471931,28.0441618 39,27.0306201 39,25.7808756 L39,16.0927651 C39,14.8430206 37.9471931,13.8295276 36.6490213,13.8295276 Z" id="Fill-3" fill-opacity="0.87" fill="#000000"></path>
                </g>
            </g>
        </g>
    </g>
</svg>